<svg xmlns="http://www.w3.org/2000/svg" xmlns:xlink="http://www.w3.org/1999/xlink" width="150" zoomAndPan="magnify" viewBox="0 0 112.5 37.5" height="50" preserveAspectRatio="xMidYMid meet" version="1.0"><defs><g/><clipPath id="0abb6f7f86"><path d="M 11 1.234375 L 34 1.234375 L 34 33.0625 L 11 33.0625 Z M 11 1.234375 " clip-rule="nonzero"/></clipPath><clipPath id="76fd2bec8a"><path d="M 1.972656 13 L 5 13 L 5 22 L 1.972656 22 Z M 1.972656 13 " clip-rule="nonzero"/></clipPath><clipPath id="ba23c60571"><path d="M 36 13 L 38.980469 13 L 38.980469 22 L 36 22 Z M 36 13 " clip-rule="nonzero"/></clipPath></defs><g clip-path="url(#0abb6f7f86)"><path fill="#18c6b3" d="M 11.875 23.835938 L 11.875 10.703125 C 11.875 9.378906 12.445312 8.164062 13.421875 7.332031 L 13.421875 2.691406 C 13.421875 1.894531 14.074219 1.242188 14.871094 1.242188 C 15.667969 1.242188 16.316406 1.894531 16.316406 2.691406 L 16.316406 6.257812 C 17.078125 6.257812 17.839844 6.457031 18.53125 6.859375 L 19.210938 7.25 L 19.210938 5.6875 C 19.210938 4.894531 19.859375 4.242188 20.65625 4.242188 C 21.453125 4.242188 22.105469 4.894531 22.105469 5.6875 L 22.105469 8.917969 L 24.996094 10.589844 L 24.996094 2.691406 C 24.996094 1.894531 25.644531 1.242188 26.441406 1.242188 C 27.238281 1.242188 27.890625 1.894531 27.890625 2.691406 L 27.890625 12.261719 L 29.90625 13.425781 C 30.230469 13.613281 30.523438 13.832031 30.78125 14.082031 L 30.78125 7.878906 C 30.78125 7.082031 31.433594 6.429688 32.226562 6.429688 C 33.023438 6.429688 33.675781 7.082031 33.675781 7.878906 L 33.675781 26.660156 C 33.675781 27.457031 33.023438 28.105469 32.226562 28.105469 C 31.433594 28.105469 30.78125 27.457031 30.78125 26.660156 L 30.78125 20.453125 C 30.523438 20.703125 30.230469 20.925781 29.90625 21.109375 L 27.890625 22.277344 L 27.890625 31.847656 C 27.890625 32.644531 27.238281 33.292969 26.441406 33.292969 C 25.644531 33.292969 24.996094 32.644531 24.996094 31.847656 L 24.996094 23.945312 L 22.105469 25.617188 L 22.105469 28.847656 C 22.105469 29.644531 21.453125 30.292969 20.65625 30.292969 C 19.859375 30.292969 19.210938 29.644531 19.210938 28.847656 L 19.210938 27.289062 L 18.53125 27.679688 C 17.839844 28.078125 17.078125 28.277344 16.316406 28.277344 L 16.316406 31.847656 C 16.316406 32.644531 15.667969 33.292969 14.871094 33.292969 C 14.074219 33.292969 13.421875 32.644531 13.421875 31.847656 L 13.421875 27.203125 C 12.445312 26.371094 11.875 25.15625 11.875 23.835938 Z M 11.875 23.835938 " fill-opacity="1" fill-rule="nonzero"/></g><path fill="#ffffff" d="M 14.769531 23.835938 L 14.769531 10.703125 C 14.769531 10.132812 15.050781 9.644531 15.539062 9.363281 L 15.5625 9.347656 L 15.585938 9.335938 L 15.597656 9.328125 L 15.609375 9.324219 L 15.621094 9.316406 L 15.632812 9.3125 L 15.644531 9.304688 L 15.667969 9.296875 L 15.679688 9.289062 L 15.695312 9.285156 L 15.703125 9.277344 L 15.707031 9.277344 L 15.71875 9.273438 L 15.726562 9.269531 L 15.730469 9.269531 L 15.742188 9.265625 L 15.75 9.257812 L 15.753906 9.257812 L 15.824219 9.234375 L 15.824219 9.230469 L 15.847656 9.222656 L 15.851562 9.222656 L 15.863281 9.21875 L 15.871094 9.21875 L 15.875 9.214844 L 15.886719 9.210938 L 15.898438 9.210938 L 15.945312 9.195312 L 15.960938 9.191406 L 15.972656 9.191406 L 15.984375 9.1875 L 15.992188 9.183594 L 16.007812 9.183594 L 16.03125 9.175781 L 16.046875 9.175781 L 16.058594 9.171875 L 16.070312 9.171875 L 16.082031 9.167969 L 16.09375 9.167969 L 16.09375 9.164062 L 16.121094 9.164062 L 16.132812 9.160156 L 16.144531 9.160156 L 16.15625 9.15625 L 16.195312 9.15625 L 16.207031 9.152344 L 16.265625 9.152344 L 16.269531 9.148438 L 16.316406 9.148438 C 16.578125 9.148438 16.84375 9.222656 17.085938 9.363281 L 19.210938 10.585938 L 22.105469 12.257812 L 24.996094 13.929688 L 27.890625 15.597656 L 28.460938 15.929688 C 28.953125 16.214844 29.234375 16.699219 29.234375 17.269531 C 29.234375 17.835938 28.953125 18.324219 28.460938 18.609375 L 27.890625 18.9375 L 24.996094 20.609375 L 22.105469 22.277344 L 19.210938 23.949219 L 17.085938 25.175781 C 16.84375 25.3125 16.578125 25.386719 16.316406 25.386719 L 16.230469 25.386719 L 16.21875 25.382812 L 16.179688 25.382812 L 16.167969 25.378906 L 16.144531 25.378906 L 16.140625 25.375 L 16.117188 25.375 L 16.105469 25.371094 L 16.09375 25.371094 L 16.082031 25.367188 L 16.066406 25.367188 L 16.058594 25.363281 L 16.042969 25.363281 L 16.019531 25.355469 L 16.007812 25.355469 L 15.996094 25.351562 L 15.992188 25.351562 L 15.984375 25.347656 L 15.96875 25.347656 L 15.960938 25.34375 L 15.945312 25.339844 L 15.933594 25.335938 L 15.921875 25.335938 L 15.921875 25.332031 L 15.910156 25.332031 L 15.875 25.320312 L 15.871094 25.320312 L 15.863281 25.316406 L 15.851562 25.3125 L 15.847656 25.3125 L 15.789062 25.292969 L 15.777344 25.285156 L 15.753906 25.277344 L 15.75 25.277344 L 15.742188 25.273438 L 15.730469 25.265625 L 15.726562 25.265625 L 15.71875 25.261719 L 15.707031 25.257812 L 15.703125 25.257812 L 15.691406 25.253906 L 15.679688 25.246094 L 15.667969 25.242188 L 15.65625 25.234375 L 15.644531 25.230469 L 15.632812 25.222656 L 15.621094 25.21875 L 15.609375 25.210938 L 15.597656 25.207031 L 15.585938 25.199219 L 15.5625 25.1875 L 15.550781 25.179688 L 15.539062 25.175781 C 15.050781 24.890625 14.769531 24.402344 14.769531 23.835938 " fill-opacity="1" fill-rule="nonzero"/><g clip-path="url(#76fd2bec8a)"><path fill="#18c6b3" d="M 3.386719 13.121094 C 4.164062 13.121094 4.800781 13.757812 4.800781 14.539062 L 4.800781 20 C 4.800781 20.777344 4.164062 21.414062 3.386719 21.414062 C 2.605469 21.414062 1.96875 20.777344 1.96875 20 L 1.96875 14.539062 C 1.96875 13.757812 2.605469 13.121094 3.386719 13.121094 Z M 3.386719 13.121094 " fill-opacity="1" fill-rule="nonzero"/></g><g clip-path="url(#ba23c60571)"><path fill="#18c6b3" d="M 37.925781 13.121094 C 37.148438 13.121094 36.511719 13.757812 36.511719 14.539062 L 36.511719 20 C 36.511719 20.777344 37.148438 21.414062 37.925781 21.414062 C 38.707031 21.414062 39.34375 20.777344 39.34375 20 L 39.34375 14.539062 C 39.34375 13.757812 38.707031 13.121094 37.925781 13.121094 Z M 37.925781 13.121094 " fill-opacity="1" fill-rule="nonzero"/></g><path fill="#18c6b3" d="M 9.082031 6.429688 L 9.085938 6.429688 C 9.878906 6.429688 10.53125 7.082031 10.53125 7.878906 L 10.53125 26.660156 C 10.53125 27.457031 9.878906 28.105469 9.085938 28.105469 L 9.082031 28.105469 C 8.289062 28.105469 7.636719 27.457031 7.636719 26.660156 L 7.636719 7.878906 C 7.636719 7.082031 8.289062 6.429688 9.082031 6.429688 Z M 9.082031 6.429688 " fill-opacity="1" fill-rule="nonzero"/><g fill="#18c6b3" fill-opacity="1"><g transform="translate(39.672732, 22.360366)"><g><path d="M 9.15625 -0.265625 L 8.9375 -0.46875 L 8.53125 -0.921875 L 6.125 -3.3125 L 5.859375 -3.484375 L 5.65625 -3.71875 L 4.546875 -4.765625 L 4.34375 -5.03125 L 4.140625 -5.109375 L 4.03125 -4.84375 L 4 -4.53125 L 3.984375 -0.609375 L 3.84375 -0.125 L 3.53125 0.03125 L 3.203125 0.046875 L 2.59375 0 L 2.25 0.03125 L 1.609375 0 L 1.296875 -0.109375 L 1.15625 -0.40625 L 1.125 -1.703125 L 1.15625 -2 L 1.125 -4.546875 L 1.171875 -4.8125 L 1.140625 -5.453125 L 1.15625 -5.71875 L 1.15625 -10.421875 L 1.296875 -10.71875 L 1.640625 -10.875 L 2.109375 -10.765625 L 2.46875 -10.578125 L 2.703125 -10.390625 L 5.765625 -7.296875 L 6.203125 -6.953125 L 7.296875 -5.859375 L 7.53125 -5.75 L 7.625 -6.015625 L 7.65625 -8.796875 L 7.625 -9.125 L 7.671875 -9.78125 L 7.625 -10.03125 L 7.640625 -10.359375 L 7.8125 -10.6875 L 8.109375 -10.859375 L 10.03125 -10.875 L 10.34375 -10.703125 L 10.5 -10.390625 L 10.546875 -8.234375 L 10.5 -7.859375 L 10.5 -6.328125 L 10.546875 -6.0625 L 10.515625 -0.390625 L 10.359375 -0.078125 L 10.015625 0.03125 L 9.578125 -0.015625 Z M 9.15625 -0.265625 "/></g></g></g><g fill="#18c6b3" fill-opacity="1"><g transform="translate(50.918474, 22.360366)"><g><path d="M 5.8125 0.1875 L 5.484375 0.15625 L 4.921875 0.03125 L 4.578125 0 L 4.125 -0.15625 L 2.921875 -0.78125 L 2.40625 -1.1875 L 2.234375 -1.375 L 2 -1.59375 L 1.796875 -1.84375 L 1.609375 -2.03125 L 0.90625 -3.453125 L 0.765625 -4.03125 L 0.734375 -4.328125 L 0.65625 -4.609375 L 0.609375 -4.9375 L 0.65625 -6.203125 L 0.921875 -7.390625 L 1.15625 -7.984375 L 1.625 -8.8125 L 2.390625 -9.6875 L 2.921875 -10.078125 L 3.203125 -10.21875 L 3.4375 -10.390625 L 4.59375 -10.828125 L 6.25 -11.0625 L 6.65625 -11.046875 L 7.5625 -10.890625 L 8.765625 -10.515625 L 9 -10.34375 L 9.453125 -10.140625 L 9.8125 -9.890625 L 10.265625 -9.5 L 10.703125 -9.03125 L 11.046875 -8.5625 L 11.34375 -7.984375 L 11.71875 -6.8125 L 11.828125 -6.1875 L 11.875 -5.40625 L 11.8125 -4.953125 L 11.796875 -4.625 L 11.71875 -4.3125 L 11.703125 -4.03125 L 11.59375 -3.453125 L 11.359375 -2.859375 L 10.671875 -1.8125 L 10.453125 -1.59375 L 10.25 -1.3125 L 9.8125 -0.953125 L 9.515625 -0.8125 L 9.28125 -0.625 L 8.78125 -0.34375 L 7.609375 0.046875 L 6.671875 0.171875 Z M 6.671875 -2.5625 L 6.984375 -2.625 L 7.21875 -2.734375 L 7.5 -2.8125 L 8.25 -3.328125 L 8.46875 -3.578125 L 8.5625 -3.8125 L 8.734375 -4.078125 L 8.84375 -4.359375 L 8.96875 -4.9375 L 9 -5.890625 L 8.953125 -6.171875 L 8.8125 -6.46875 L 8.625 -7.046875 L 8.015625 -7.6875 L 7.53125 -8.03125 L 7.25 -8.15625 L 6.96875 -8.21875 L 6.234375 -8.3125 L 5.796875 -8.28125 L 5.1875 -8.125 L 4.984375 -8.046875 L 4.203125 -7.515625 L 3.84375 -7.015625 L 3.75 -6.734375 L 3.625 -6.46875 L 3.578125 -6.171875 L 3.5 -5.890625 L 3.5 -4.9375 L 3.625 -4.359375 L 3.765625 -4.078125 L 3.84375 -3.84375 L 4.046875 -3.546875 L 4.25 -3.328125 L 4.671875 -2.984375 L 4.921875 -2.84375 L 5.484375 -2.609375 L 5.828125 -2.5625 Z M 6.671875 -2.5625 "/></g></g></g><g fill="#18c6b3" fill-opacity="1"><g transform="translate(62.909799, 22.360366)"><g><path d="M 1.140625 -0.46875 L 1.125 -1.0625 L 1.1875 -1.984375 L 1.140625 -2.625 L 1.171875 -3.890625 L 1.140625 -4.1875 L 1.140625 -4.8125 L 1.171875 -5.109375 L 1.125 -5.4375 L 1.125 -6.671875 L 1.15625 -6.96875 L 1.140625 -7.296875 L 1.171875 -7.59375 L 1.140625 -7.921875 L 1.1875 -8.25 L 1.125 -9.28125 L 1.15625 -9.734375 L 1.125 -10.40625 L 1.265625 -10.734375 L 1.5625 -10.875 L 6.25 -10.84375 L 7.109375 -10.640625 L 7.6875 -10.328125 L 8.15625 -10 L 8.375 -9.78125 L 8.75 -9.28125 L 8.84375 -9 L 9 -8.703125 L 9.15625 -8.125 L 9.171875 -7.671875 L 8.96875 -6.546875 L 8.78125 -6.296875 L 8.609375 -5.984375 L 8.546875 -5.671875 L 8.6875 -5.328125 L 8.921875 -5.09375 L 9.125 -4.828125 L 9.40625 -4.28125 L 9.515625 -3.953125 L 9.578125 -3.671875 L 9.5625 -2.421875 L 9.4375 -2.109375 L 9.375 -1.84375 L 9.234375 -1.546875 L 8.890625 -1.046875 L 8.640625 -0.8125 L 8.4375 -0.65625 L 7.84375 -0.3125 L 7.328125 -0.109375 L 6.734375 -0.03125 L 1.59375 0.03125 L 1.296875 -0.109375 Z M 4.3125 -6.65625 L 5.484375 -6.65625 L 6.015625 -6.765625 L 6.28125 -7.015625 L 6.359375 -7.484375 L 6.3125 -7.90625 L 6.109375 -8.125 L 5.921875 -8.25 L 5.4375 -8.34375 L 4.3125 -8.390625 L 3.984375 -8.21875 L 3.828125 -7.953125 L 3.859375 -7.65625 L 3.859375 -7.359375 L 3.796875 -7.09375 L 3.9375 -6.78125 Z M 4.265625 -2.46875 L 5.484375 -2.453125 L 6.328125 -2.53125 L 6.59375 -2.703125 L 6.796875 -2.921875 L 6.828125 -3.328125 L 6.796875 -3.765625 L 6.5625 -3.96875 L 6.34375 -4.140625 L 5.90625 -4.21875 L 4.25 -4.21875 L 3.9375 -4.0625 L 3.84375 -3.796875 L 3.828125 -3.484375 L 3.859375 -3.1875 L 3.84375 -2.921875 L 4 -2.59375 Z M 4.265625 -2.46875 "/></g></g></g><g fill="#18c6b3" fill-opacity="1"><g transform="translate(72.695443, 22.360366)"><g><path d="M 1.203125 -0.5 L 1.15625 -1.703125 L 1.1875 -2.03125 L 1.125 -2.9375 L 1.171875 -3.578125 L 1.125 -3.90625 L 1.140625 -4.5 L 1.171875 -4.828125 L 1.171875 -5.609375 L 1.125 -6.0625 L 1.171875 -10.40625 L 1.296875 -10.734375 L 1.578125 -10.875 L 1.921875 -10.859375 L 2.21875 -10.90625 L 2.859375 -10.84375 L 3.15625 -10.890625 L 4.078125 -10.859375 L 4.34375 -10.890625 L 4.6875 -10.859375 L 5 -10.890625 L 5.34375 -10.875 L 5.796875 -10.890625 L 6.1875 -10.859375 L 7.46875 -10.59375 L 8.015625 -10.3125 L 8.796875 -9.71875 L 8.9375 -9.484375 L 9.140625 -9.25 L 9.5625 -8.40625 L 9.640625 -8.09375 L 9.6875 -7.796875 L 9.765625 -7.5 L 9.75 -6.28125 L 9.578125 -5.6875 L 9.46875 -5.421875 L 9.296875 -5.140625 L 9.1875 -4.84375 L 9.015625 -4.578125 L 8.578125 -4.15625 L 8.40625 -3.84375 L 8.453125 -3.46875 L 8.921875 -2.65625 L 9.109375 -2.40625 L 9.265625 -2.125 L 9.453125 -1.84375 L 9.59375 -1.578125 L 10.09375 -0.828125 L 10.296875 -0.4375 L 10.234375 -0.109375 L 9.90625 -0.03125 L 9.5625 0 L 8.953125 0 L 8.640625 -0.03125 L 8.296875 0 L 7.734375 -0.03125 L 7.34375 -0.125 L 7.03125 -0.40625 L 6.84375 -0.65625 L 6.703125 -0.921875 L 6.5 -1.21875 L 6.078125 -1.984375 L 5.96875 -2.28125 L 5.5625 -2.828125 L 5.3125 -3.09375 L 4.921875 -3.21875 L 4.640625 -3.203125 L 4.359375 -3.203125 L 4.046875 -3.046875 L 3.90625 -2.734375 L 3.9375 -1.765625 L 3.890625 -1.109375 L 3.953125 -0.78125 L 3.921875 -0.453125 L 3.828125 -0.15625 L 3.34375 0 L 2.875 0 L 2.546875 -0.03125 L 1.90625 0.015625 L 1.609375 0 L 1.296875 -0.15625 Z M 4.359375 -5.71875 L 4.703125 -5.71875 L 5.015625 -5.671875 L 6.234375 -5.78125 L 6.46875 -5.890625 L 6.640625 -6.078125 L 6.8125 -6.34375 L 6.9375 -6.640625 L 6.984375 -7.0625 L 6.953125 -7.515625 L 6.84375 -7.765625 L 6.6875 -8 L 6.21875 -8.296875 L 5.5 -8.390625 L 4.640625 -8.40625 L 4.390625 -8.390625 L 4.078125 -8.234375 L 3.890625 -7.921875 L 3.9375 -6.1875 L 4.09375 -5.859375 Z M 4.359375 -5.71875 "/></g></g></g><g fill="#18c6b3" fill-opacity="1"><g transform="translate(82.993673, 22.360366)"><g><path d="M 1.125 -0.453125 L 1.1875 -0.765625 L 1.203125 -1.078125 L 1.171875 -1.671875 L 1.171875 -1.984375 L 1.140625 -2.34375 L 1.1875 -2.625 L 1.171875 -2.921875 L 1.203125 -3.265625 L 1.15625 -3.59375 L 1.1875 -4.203125 L 1.140625 -4.8125 L 1.1875 -5.140625 L 1.1875 -7.921875 L 1.15625 -8.203125 L 1.1875 -8.53125 L 1.125 -9.3125 L 1.1875 -9.765625 L 1.15625 -10.390625 L 1.296875 -10.734375 L 1.75 -10.84375 L 3.796875 -10.890625 L 4.0625 -10.859375 L 4.671875 -10.875 L 4.984375 -10.84375 L 5.671875 -10.875 L 5.984375 -10.828125 L 6.265625 -10.859375 L 7.5 -10.84375 L 7.828125 -10.703125 L 7.984375 -10.390625 L 7.9375 -10.09375 L 7.921875 -9.75 L 7.96875 -9.453125 L 8 -8.828125 L 7.828125 -8.546875 L 7.5 -8.375 L 4.515625 -8.359375 L 4.03125 -8.21875 L 3.890625 -7.765625 L 3.90625 -7.28125 L 4.09375 -7 L 4.359375 -6.828125 L 5.59375 -6.84375 L 5.953125 -6.8125 L 6.28125 -6.8125 L 6.578125 -6.84375 L 7.203125 -6.828125 L 7.46875 -6.65625 L 7.609375 -6.375 L 7.640625 -6.0625 L 7.609375 -4.828125 L 7.453125 -4.53125 L 7.140625 -4.359375 L 6.859375 -4.34375 L 6.53125 -4.375 L 6.125 -4.34375 L 5.296875 -4.390625 L 4.984375 -4.359375 L 4.375 -4.359375 L 4.09375 -4.1875 L 3.953125 -3.875 L 3.9375 -3.109375 L 4.078125 -2.625 L 4.40625 -2.4375 L 4.75 -2.46875 L 5.09375 -2.4375 L 5.390625 -2.484375 L 7.4375 -2.453125 L 7.90625 -2.296875 L 8.109375 -1.984375 L 8.078125 -1.6875 L 8.09375 -0.734375 L 8.0625 -0.4375 L 7.921875 -0.140625 L 7.59375 0.015625 L 7.296875 0.046875 L 6.359375 -0.015625 L 5.40625 0.03125 L 5.125 -0.015625 L 1.609375 0.015625 L 1.3125 -0.15625 Z M 1.125 -0.453125 "/></g></g></g><g fill="#18c6b3" fill-opacity="1"><g transform="translate(91.427947, 22.360366)"><g><path d="M 4.046875 0.03125 L 3.578125 0.015625 L 3.125 -0.140625 L 2.921875 -0.484375 L 2.953125 -0.78125 L 2.96875 -1.671875 L 2.9375 -2 L 2.953125 -3.265625 L 2.984375 -3.578125 L 2.9375 -5.890625 L 2.96875 -6.328125 L 2.953125 -6.625 L 2.96875 -6.96875 L 2.9375 -7.40625 L 2.96875 -7.90625 L 2.796875 -8.21875 L 2.5 -8.375 L 1.03125 -8.40625 L 0.71875 -8.375 L 0.4375 -8.53125 L 0.296875 -8.8125 L 0.265625 -9.28125 L 0.296875 -10.0625 L 0.28125 -10.375 L 0.46875 -10.734375 L 0.765625 -10.890625 L 1.84375 -10.828125 L 2.328125 -10.875 L 3.25 -10.828125 L 3.53125 -10.890625 L 3.875 -10.859375 L 4.1875 -10.90625 L 4.484375 -10.890625 L 4.796875 -10.828125 L 6.0625 -10.890625 L 6.359375 -10.859375 L 6.671875 -10.90625 L 6.96875 -10.875 L 7.9375 -10.875 L 8.234375 -10.671875 L 8.40625 -10.359375 L 8.390625 -8.890625 L 8.203125 -8.546875 L 7.9375 -8.375 L 7.65625 -8.390625 L 7.328125 -8.34375 L 6.75 -8.421875 L 6.15625 -8.390625 L 5.859375 -8.203125 L 5.734375 -7.734375 L 5.6875 -6.390625 L 5.734375 -6.0625 L 5.703125 -3.5625 L 5.75 -3.21875 L 5.71875 -2.9375 L 5.734375 -2.3125 L 5.703125 -1.984375 L 5.75 -1.390625 L 5.703125 -0.59375 L 5.546875 -0.15625 L 5.09375 0 Z M 4.046875 0.03125 "/></g></g></g><g fill="#18c6b3" fill-opacity="1"><g transform="translate(99.644762, 22.360366)"><g><path d="M 5.34375 0.140625 L 5.046875 0.09375 L 4.703125 -0.03125 L 4.390625 -0.296875 L 4.25 -0.53125 L 3.640625 -2 L 3.5625 -2.3125 L 3.390625 -2.59375 L 3.125 -3.125 L 3.015625 -3.453125 L 2.625 -4.25 L 2.53125 -4.5625 L 1.140625 -7.703125 L 1.03125 -8.03125 L 0.859375 -8.265625 L 0.734375 -8.578125 L 0.65625 -8.875 L 0.5 -9.09375 L 0 -10.421875 L 0.125 -10.734375 L 0.375 -10.84375 L 0.96875 -10.84375 L 1.28125 -10.890625 L 2.15625 -10.859375 L 2.515625 -10.703125 L 2.78125 -10.4375 L 3.21875 -9.25 L 3.625 -8.4375 L 4.390625 -6.421875 L 4.65625 -5.890625 L 4.71875 -5.59375 L 5.109375 -4.75 L 5.28125 -4.71875 L 5.4375 -5 L 5.75 -5.875 L 5.90625 -6.15625 L 5.96875 -6.4375 L 6.109375 -6.6875 L 6.203125 -7.015625 L 7.640625 -10.4375 L 7.90625 -10.703125 L 8.25 -10.90625 L 8.84375 -10.84375 L 9.140625 -10.859375 L 9.4375 -10.890625 L 9.71875 -10.84375 L 10.046875 -10.8125 L 10.328125 -10.75 L 10.40625 -10.421875 L 10.296875 -10 L 10 -9.453125 L 9.921875 -9.15625 L 9.65625 -8.609375 L 9.5 -8.328125 L 8.15625 -5.125 L 7.875 -4.625 L 7.765625 -4.28125 L 7.15625 -2.875 L 6.984375 -2.59375 L 6.890625 -2.328125 L 6.734375 -2 L 6.640625 -1.6875 L 6.359375 -1.203125 L 6.265625 -0.875 L 6.0625 -0.4375 L 5.71875 0.015625 Z M 5.34375 0.140625 "/></g></g></g><g fill="#18c6b3" fill-opacity="1"><g transform="translate(37.383139, 27.323317)"><g><path d="M 2.90625 -2.421875 L 2.90625 0 L 2.65625 0 L 2.65625 -1.9375 L 1.703125 -0.3125 L 1.59375 -0.3125 L 0.640625 -1.921875 L 0.640625 0 L 0.390625 0 L 0.390625 -2.421875 L 0.609375 -2.421875 L 1.65625 -0.625 L 2.6875 -2.421875 Z M 2.90625 -2.421875 "/></g></g></g><g fill="#18c6b3" fill-opacity="1"><g transform="translate(42.061661, 27.323317)"><g><path d="M 1.375 0.015625 C 1.050781 0.015625 0.800781 -0.0703125 0.625 -0.25 C 0.457031 -0.425781 0.375 -0.6875 0.375 -1.03125 L 0.375 -2.421875 L 0.625 -2.421875 L 0.625 -1.046875 C 0.625 -0.765625 0.6875 -0.550781 0.8125 -0.40625 C 0.945312 -0.269531 1.132812 -0.203125 1.375 -0.203125 C 1.613281 -0.203125 1.796875 -0.269531 1.921875 -0.40625 C 2.046875 -0.550781 2.109375 -0.765625 2.109375 -1.046875 L 2.109375 -2.421875 L 2.359375 -2.421875 L 2.359375 -1.03125 C 2.359375 -0.6875 2.269531 -0.425781 2.09375 -0.25 C 1.925781 -0.0703125 1.6875 0.015625 1.375 0.015625 Z M 1.375 0.015625 "/></g></g></g><g fill="#18c6b3" fill-opacity="1"><g transform="translate(46.177379, 27.323317)"><g><path d="M 0.390625 -2.421875 L 0.65625 -2.421875 L 0.65625 -0.21875 L 2 -0.21875 L 2 0 L 0.390625 0 Z M 0.390625 -2.421875 "/></g></g></g><g fill="#18c6b3" fill-opacity="1"><g transform="translate(49.59218, 27.323317)"><g><path d="M 0.859375 -2.203125 L 0.015625 -2.203125 L 0.015625 -2.421875 L 1.96875 -2.421875 L 1.96875 -2.203125 L 1.125 -2.203125 L 1.125 0 L 0.859375 0 Z M 0.859375 -2.203125 "/></g></g></g><g fill="#18c6b3" fill-opacity="1"><g transform="translate(52.955187, 27.323317)"><g><path d="M 0.390625 -2.421875 L 0.65625 -2.421875 L 0.65625 0 L 0.390625 0 Z M 0.390625 -2.421875 "/></g></g></g><g fill="#18c6b3" fill-opacity="1"><g transform="translate(55.379035, 27.323317)"><g><path d="M 2.90625 -2.421875 L 2.90625 0 L 2.65625 0 L 2.65625 -1.9375 L 1.703125 -0.3125 L 1.59375 -0.3125 L 0.640625 -1.921875 L 0.640625 0 L 0.390625 0 L 0.390625 -2.421875 L 0.609375 -2.421875 L 1.65625 -0.625 L 2.6875 -2.421875 Z M 2.90625 -2.421875 "/></g></g></g><g fill="#18c6b3" fill-opacity="1"><g transform="translate(60.057556, 27.323317)"><g><path d="M 2.109375 -0.21875 L 2.109375 0 L 0.390625 0 L 0.390625 -2.421875 L 2.046875 -2.421875 L 2.046875 -2.203125 L 0.65625 -2.203125 L 0.65625 -1.34375 L 1.90625 -1.34375 L 1.90625 -1.125 L 0.65625 -1.125 L 0.65625 -0.21875 Z M 2.109375 -0.21875 "/></g></g></g><g fill="#18c6b3" fill-opacity="1"><g transform="translate(63.748581, 27.323317)"><g><path d="M 0.390625 -2.421875 L 1.375 -2.421875 C 1.632812 -2.421875 1.859375 -2.367188 2.046875 -2.265625 C 2.242188 -2.160156 2.394531 -2.015625 2.5 -1.828125 C 2.613281 -1.648438 2.671875 -1.441406 2.671875 -1.203125 C 2.671875 -0.972656 2.613281 -0.765625 2.5 -0.578125 C 2.394531 -0.398438 2.242188 -0.257812 2.046875 -0.15625 C 1.859375 -0.0507812 1.632812 0 1.375 0 L 0.390625 0 Z M 1.359375 -0.21875 C 1.578125 -0.21875 1.765625 -0.257812 1.921875 -0.34375 C 2.078125 -0.425781 2.195312 -0.539062 2.28125 -0.6875 C 2.375 -0.84375 2.421875 -1.015625 2.421875 -1.203125 C 2.421875 -1.398438 2.375 -1.570312 2.28125 -1.71875 C 2.195312 -1.863281 2.078125 -1.976562 1.921875 -2.0625 C 1.765625 -2.15625 1.578125 -2.203125 1.359375 -2.203125 L 0.65625 -2.203125 L 0.65625 -0.21875 Z M 1.359375 -0.21875 "/></g></g></g><g fill="#18c6b3" fill-opacity="1"><g transform="translate(67.981691, 27.323317)"><g><path d="M 0.390625 -2.421875 L 0.65625 -2.421875 L 0.65625 0 L 0.390625 0 Z M 0.390625 -2.421875 "/></g></g></g><g fill="#18c6b3" fill-opacity="1"><g transform="translate(70.405541, 27.323317)"><g><path d="M 1.90625 -0.640625 L 0.5625 -0.640625 L 0.265625 0 L 0 0 L 1.109375 -2.421875 L 1.359375 -2.421875 L 2.46875 0 L 2.203125 0 Z M 1.8125 -0.859375 L 1.234375 -2.15625 L 0.65625 -0.859375 Z M 1.8125 -0.859375 "/></g></g></g><g fill="#18c6b3" fill-opacity="1"><g transform="translate(74.262297, 27.323317)"><g/></g></g><g fill="#18c6b3" fill-opacity="1"><g transform="translate(76.548037, 27.323317)"><g><path d="M 1.296875 -2.421875 C 1.609375 -2.421875 1.847656 -2.34375 2.015625 -2.1875 C 2.191406 -2.039062 2.28125 -1.84375 2.28125 -1.59375 C 2.28125 -1.332031 2.191406 -1.128906 2.015625 -0.984375 C 1.847656 -0.835938 1.609375 -0.765625 1.296875 -0.765625 L 0.65625 -0.765625 L 0.65625 0 L 0.390625 0 L 0.390625 -2.421875 Z M 1.296875 -0.984375 C 1.535156 -0.984375 1.71875 -1.035156 1.84375 -1.140625 C 1.96875 -1.242188 2.03125 -1.394531 2.03125 -1.59375 C 2.03125 -1.78125 1.96875 -1.925781 1.84375 -2.03125 C 1.71875 -2.144531 1.535156 -2.203125 1.296875 -2.203125 L 0.65625 -2.203125 L 0.65625 -0.984375 Z M 1.296875 -0.984375 "/></g></g></g><g fill="#18c6b3" fill-opacity="1"><g transform="translate(80.408247, 27.323317)"><g><path d="M 0.390625 -2.421875 L 0.65625 -2.421875 L 0.65625 -0.21875 L 2 -0.21875 L 2 0 L 0.390625 0 Z M 0.390625 -2.421875 "/></g></g></g><g fill="#18c6b3" fill-opacity="1"><g transform="translate(83.823049, 27.323317)"><g><path d="M 1.90625 -0.640625 L 0.5625 -0.640625 L 0.265625 0 L 0 0 L 1.109375 -2.421875 L 1.359375 -2.421875 L 2.46875 0 L 2.203125 0 Z M 1.8125 -0.859375 L 1.234375 -2.15625 L 0.65625 -0.859375 Z M 1.8125 -0.859375 "/></g></g></g><g fill="#18c6b3" fill-opacity="1"><g transform="translate(87.679808, 27.323317)"><g><path d="M 1.21875 -0.828125 L 1.21875 0 L 0.96875 0 L 0.96875 -0.828125 L 0 -2.421875 L 0.28125 -2.421875 L 1.109375 -1.0625 L 1.9375 -2.421875 L 2.1875 -2.421875 Z M 1.21875 -0.828125 "/></g></g></g><g fill="#18c6b3" fill-opacity="1"><g transform="translate(91.253438, 27.323317)"><g><path d="M 2.109375 -0.21875 L 2.109375 0 L 0.390625 0 L 0.390625 -2.421875 L 2.046875 -2.421875 L 2.046875 -2.203125 L 0.65625 -2.203125 L 0.65625 -1.34375 L 1.90625 -1.34375 L 1.90625 -1.125 L 0.65625 -1.125 L 0.65625 -0.21875 Z M 2.109375 -0.21875 "/></g></g></g><g fill="#18c6b3" fill-opacity="1"><g transform="translate(94.944463, 27.323317)"><g><path d="M 2.046875 0 L 1.484375 -0.78125 C 1.429688 -0.769531 1.367188 -0.765625 1.296875 -0.765625 L 0.65625 -0.765625 L 0.65625 0 L 0.390625 0 L 0.390625 -2.421875 L 1.296875 -2.421875 C 1.609375 -2.421875 1.847656 -2.34375 2.015625 -2.1875 C 2.191406 -2.039062 2.28125 -1.84375 2.28125 -1.59375 C 2.28125 -1.40625 2.234375 -1.242188 2.140625 -1.109375 C 2.046875 -0.984375 1.910156 -0.890625 1.734375 -0.828125 L 2.328125 0 Z M 1.296875 -0.984375 C 1.535156 -0.984375 1.71875 -1.035156 1.84375 -1.140625 C 1.96875 -1.242188 2.03125 -1.394531 2.03125 -1.59375 C 2.03125 -1.78125 1.96875 -1.925781 1.84375 -2.03125 C 1.71875 -2.144531 1.535156 -2.203125 1.296875 -2.203125 L 0.65625 -2.203125 L 0.65625 -0.984375 Z M 1.296875 -0.984375 "/></g></g></g></svg>